<svg width="124" height="20" viewBox="0 0 124 20" fill="none" xmlns="http://www.w3.org/2000/svg">
<path d="M8.63672 12.2852C8.63672 13.2148 8.46094 14.0898 8.10938 14.9102C7.75781 15.7227 7.27734 16.4336 6.66797 17.043C6.06641 17.6445 5.35547 18.1211 4.53516 18.4727C3.72266 18.8242 2.85156 19 1.92188 19C1.35938 19 0.796875 18.9297 0.234375 18.7891V15.1797C0.484375 15.3281 0.753906 15.4414 1.04297 15.5195C1.33203 15.5977 1.625 15.6367 1.92188 15.6367C2.38281 15.6367 2.81641 15.5508 3.22266 15.3789C3.63672 15.1992 3.99609 14.957 4.30078 14.6523C4.60547 14.3477 4.84375 13.9922 5.01562 13.5859C5.19531 13.1797 5.28516 12.7461 5.28516 12.2852V2.19531H8.63672V12.2852ZM23.168 12.6133C23.168 13.5508 23 14.4258 22.6641 15.2383C22.3281 16.043 21.8711 16.7422 21.293 17.3359C20.7148 17.9219 20.0352 18.3867 19.2539 18.7305C18.4805 19.0664 17.6484 19.2344 16.7578 19.2344C15.875 19.2344 15.043 19.0664 14.2617 18.7305C13.4883 18.3867 12.8086 17.9219 12.2227 17.3359C11.6445 16.7422 11.1875 16.043 10.8516 15.2383C10.5156 14.4258 10.3477 13.5508 10.3477 12.6133C10.3477 11.6602 10.5156 10.7773 10.8516 9.96484C11.1875 9.15234 11.6445 8.45312 12.2227 7.86719C12.8086 7.27344 13.4883 6.80859 14.2617 6.47266C15.043 6.13672 15.875 5.96875 16.7578 5.96875C17.6484 5.96875 18.4805 6.12891 19.2539 6.44922C20.0352 6.76172 20.7148 7.21094 21.293 7.79688C21.8711 8.375 22.3281 9.07422 22.6641 9.89453C23 10.707 23.168 11.6133 23.168 12.6133ZM19.9453 12.6133C19.9453 12.0977 19.8594 11.6328 19.6875 11.2188C19.5234 10.7969 19.2969 10.4375 19.0078 10.1406C18.7188 9.83594 18.3789 9.60547 17.9883 9.44922C17.6055 9.28516 17.1953 9.20312 16.7578 9.20312C16.3203 9.20312 15.9062 9.28516 15.5156 9.44922C15.1328 9.60547 14.7969 9.83594 14.5078 10.1406C14.2266 10.4375 14.0039 10.7969 13.8398 11.2188C13.6758 11.6328 13.5938 12.0977 13.5938 12.6133C13.5938 13.0977 13.6758 13.5469 13.8398 13.9609C14.0039 14.375 14.2266 14.7344 14.5078 15.0391C14.7969 15.3438 15.1328 15.5859 15.5156 15.7656C15.9062 15.9375 16.3203 16.0234 16.7578 16.0234C17.1953 16.0234 17.6055 15.9414 17.9883 15.7773C18.3789 15.6133 18.7188 15.3828 19.0078 15.0859C19.2969 14.7891 19.5234 14.4297 19.6875 14.0078C19.8594 13.5859 19.9453 13.1211 19.9453 12.6133ZM37.5 12.6133C37.5 13.5977 37.332 14.4961 36.9961 15.3086C36.6602 16.1211 36.2031 16.8203 35.625 17.4062C35.0469 17.9844 34.3672 18.4336 33.5859 18.7539C32.8125 19.0742 31.9805 19.2344 31.0898 19.2344C30.207 19.2344 29.375 19.0703 28.5938 18.7422C27.8203 18.4141 27.1406 17.957 26.5547 17.3711C25.9766 16.7852 25.5195 16.0898 25.1836 15.2852C24.8477 14.4727 24.6797 13.582 24.6797 12.6133V1.45703H27.8906V7.31641C28.0625 7.09766 28.2695 6.90234 28.5117 6.73047C28.7617 6.55859 29.0273 6.41797 29.3086 6.30859C29.5977 6.19922 29.8945 6.11719 30.1992 6.0625C30.5039 6 30.8008 5.96875 31.0898 5.96875C31.9805 5.96875 32.8125 6.13672 33.5859 6.47266C34.3672 6.80078 35.0469 7.26172 35.625 7.85547C36.2031 8.44922 36.6602 9.15234 36.9961 9.96484C37.332 10.7695 37.5 11.6523 37.5 12.6133ZM34.2773 12.6133C34.2773 12.1289 34.1914 11.6797 34.0195 11.2656C33.8555 10.8438 33.6289 10.4805 33.3398 10.1758C33.0508 9.87109 32.7109 9.63281 32.3203 9.46094C31.9375 9.28906 31.5273 9.20312 31.0898 9.20312C30.6523 9.20312 30.2383 9.30078 29.8477 9.49609C29.4648 9.68359 29.1289 9.9375 28.8398 10.2578C28.5508 10.5703 28.3242 10.9336 28.1602 11.3477C27.9961 11.7539 27.9141 12.1758 27.9141 12.6133C27.9141 13.0977 27.9961 13.5469 28.1602 13.9609C28.3242 14.375 28.5508 14.7344 28.8398 15.0391C29.1289 15.3438 29.4648 15.5859 29.8477 15.7656C30.2383 15.9375 30.6523 16.0234 31.0898 16.0234C31.5273 16.0234 31.9375 15.9375 32.3203 15.7656C32.7109 15.5859 33.0508 15.3438 33.3398 15.0391C33.6289 14.7344 33.8555 14.375 34.0195 13.9609C34.1914 13.5469 34.2773 13.0977 34.2773 12.6133ZM43.0547 3.03906C43.0547 3.33594 42.9961 3.61328 42.8789 3.87109C42.7695 4.12891 42.6172 4.35547 42.4219 4.55078C42.2266 4.73828 41.9961 4.89062 41.7305 5.00781C41.4727 5.11719 41.1953 5.17188 40.8984 5.17188C40.6016 5.17188 40.3203 5.11719 40.0547 5.00781C39.7969 4.89062 39.5703 4.73828 39.375 4.55078C39.1875 4.35547 39.0352 4.12891 38.918 3.87109C38.8086 3.61328 38.7539 3.33594 38.7539 3.03906C38.7539 2.75 38.8086 2.47656 38.918 2.21875C39.0352 1.95312 39.1875 1.72656 39.375 1.53906C39.5703 1.34375 39.7969 1.19141 40.0547 1.08203C40.3203 0.964844 40.6016 0.90625 40.8984 0.90625C41.1953 0.90625 41.4727 0.964844 41.7305 1.08203C41.9961 1.19141 42.2266 1.34375 42.4219 1.53906C42.6172 1.72656 42.7695 1.95312 42.8789 2.21875C42.9961 2.47656 43.0547 2.75 43.0547 3.03906ZM42.5039 19H39.2812V6.44922H42.5039V19ZM48.1523 19H44.9531V6.44922H45.7266L46.7812 7.66797C47.2969 7.19922 47.8789 6.83984 48.5273 6.58984C49.1836 6.33203 49.8672 6.20312 50.5781 6.20312C51.3438 6.20312 52.0664 6.35156 52.7461 6.64844C53.4258 6.9375 54.0195 7.33984 54.5273 7.85547C55.0352 8.36328 55.4336 8.96094 55.7227 9.64844C56.0195 10.3281 56.168 11.0547 56.168 11.8281V19H52.9688V11.8281C52.9688 11.5 52.9062 11.1914 52.7812 10.9023C52.6562 10.6055 52.4844 10.3477 52.2656 10.1289C52.0469 9.91016 51.793 9.73828 51.5039 9.61328C51.2148 9.48828 50.9062 9.42578 50.5781 9.42578C50.2422 9.42578 49.9258 9.48828 49.6289 9.61328C49.332 9.73828 49.0742 9.91016 48.8555 10.1289C48.6367 10.3477 48.4648 10.6055 48.3398 10.9023C48.2148 11.1914 48.1523 11.5 48.1523 11.8281V19ZM62.1562 19H58.793V2.19531H70.5586V5.55859H62.1562V8.92188H67.1953V12.2852H62.1562V19ZM82.6055 12.6133C82.6055 13.5508 82.4375 14.4258 82.1016 15.2383C81.7656 16.043 81.3086 16.7422 80.7305 17.3359C80.1523 17.9219 79.4727 18.3867 78.6914 18.7305C77.918 19.0664 77.0859 19.2344 76.1953 19.2344C75.3125 19.2344 74.4805 19.0664 73.6992 18.7305C72.9258 18.3867 72.2461 17.9219 71.6602 17.3359C71.082 16.7422 70.625 16.043 70.2891 15.2383C69.9531 14.4258 69.7852 13.5508 69.7852 12.6133C69.7852 11.6602 69.9531 10.7773 70.2891 9.96484C70.625 9.15234 71.082 8.45312 71.6602 7.86719C72.2461 7.27344 72.9258 6.80859 73.6992 6.47266C74.4805 6.13672 75.3125 5.96875 76.1953 5.96875C77.0859 5.96875 77.918 6.12891 78.6914 6.44922C79.4727 6.76172 80.1523 7.21094 80.7305 7.79688C81.3086 8.375 81.7656 9.07422 82.1016 9.89453C82.4375 10.707 82.6055 11.6133 82.6055 12.6133ZM79.3828 12.6133C79.3828 12.0977 79.2969 11.6328 79.125 11.2188C78.9609 10.7969 78.7344 10.4375 78.4453 10.1406C78.1562 9.83594 77.8164 9.60547 77.4258 9.44922C77.043 9.28516 76.6328 9.20312 76.1953 9.20312C75.7578 9.20312 75.3438 9.28516 74.9531 9.44922C74.5703 9.60547 74.2344 9.83594 73.9453 10.1406C73.6641 10.4375 73.4414 10.7969 73.2773 11.2188C73.1133 11.6328 73.0312 12.0977 73.0312 12.6133C73.0312 13.0977 73.1133 13.5469 73.2773 13.9609C73.4414 14.375 73.6641 14.7344 73.9453 15.0391C74.2344 15.3438 74.5703 15.5859 74.9531 15.7656C75.3438 15.9375 75.7578 16.0234 76.1953 16.0234C76.6328 16.0234 77.043 15.9414 77.4258 15.7773C77.8164 15.6133 78.1562 15.3828 78.4453 15.0859C78.7344 14.7891 78.9609 14.4297 79.125 14.0078C79.2969 13.5859 79.3828 13.1211 79.3828 12.6133ZM87.5742 19H84.375V6.44922H85.1484L86.2031 7.9375C86.7188 7.46875 87.3047 7.10938 87.9609 6.85938C88.6172 6.60156 89.2969 6.47266 90 6.47266H92.8242V9.66016H90C89.6641 9.66016 89.3477 9.72266 89.0508 9.84766C88.7539 9.97266 88.4961 10.1445 88.2773 10.3633C88.0586 10.582 87.8867 10.8398 87.7617 11.1367C87.6367 11.4336 87.5742 11.75 87.5742 12.0859V19Z" fill="white"/>
<path d="M110.273 19H107.086V11.0312C107.086 10.8125 107.043 10.6055 106.957 10.4102C106.879 10.2148 106.766 10.043 106.617 9.89453C106.469 9.74609 106.297 9.63281 106.102 9.55469C105.906 9.46875 105.699 9.42578 105.48 9.42578C105.262 9.42578 105.055 9.46875 104.859 9.55469C104.672 9.63281 104.504 9.74609 104.355 9.89453C104.215 10.043 104.102 10.2148 104.016 10.4102C103.938 10.6055 103.898 10.8125 103.898 11.0312V19H100.699V11.0312C100.699 10.8125 100.656 10.6055 100.57 10.4102C100.492 10.2148 100.379 10.043 100.23 9.89453C100.082 9.74609 99.9102 9.63281 99.7148 9.55469C99.5195 9.46875 99.3125 9.42578 99.0938 9.42578C98.875 9.42578 98.668 9.46875 98.4727 9.55469C98.2852 9.63281 98.1172 9.74609 97.9688 9.89453C97.8281 10.043 97.7148 10.2148 97.6289 10.4102C97.5508 10.6055 97.5117 10.8125 97.5117 11.0312V19H94.3125V6.44922H95.0859L95.9531 7.41016C96.3984 7.03516 96.8867 6.74609 97.418 6.54297C97.957 6.33203 98.5156 6.22656 99.0938 6.22656C99.6797 6.22656 100.25 6.33594 100.805 6.55469C101.367 6.77344 101.859 7.15234 102.281 7.69141C102.477 7.42578 102.699 7.19922 102.949 7.01172C103.199 6.82422 103.461 6.67188 103.734 6.55469C104.016 6.4375 104.305 6.35547 104.602 6.30859C104.898 6.25391 105.191 6.22656 105.48 6.22656C106.145 6.22656 106.766 6.35156 107.344 6.60156C107.93 6.85156 108.438 7.19531 108.867 7.63281C109.305 8.0625 109.648 8.57031 109.898 9.15625C110.148 9.74219 110.273 10.3672 110.273 11.0312V19ZM117.609 15.9297C117.734 15.9688 117.859 15.9961 117.984 16.0117C118.109 16.0195 118.234 16.0234 118.359 16.0234C118.672 16.0234 118.973 15.9805 119.262 15.8945C119.551 15.8086 119.82 15.6875 120.07 15.5312C120.328 15.3672 120.555 15.1719 120.75 14.9453C120.953 14.7109 121.117 14.4531 121.242 14.1719L123.586 16.5273C123.289 16.9492 122.945 17.3281 122.555 17.6641C122.172 18 121.754 18.2852 121.301 18.5195C120.855 18.7539 120.383 18.9297 119.883 19.0469C119.391 19.1719 118.883 19.2344 118.359 19.2344C117.477 19.2344 116.645 19.0703 115.863 18.7422C115.09 18.4141 114.41 17.957 113.824 17.3711C113.246 16.7852 112.789 16.0898 112.453 15.2852C112.117 14.4727 111.949 13.582 111.949 12.6133C111.949 11.6211 112.117 10.7148 112.453 9.89453C112.789 9.07422 113.246 8.375 113.824 7.79688C114.41 7.21875 115.09 6.76953 115.863 6.44922C116.645 6.12891 117.477 5.96875 118.359 5.96875C118.883 5.96875 119.395 6.03125 119.895 6.15625C120.395 6.28125 120.867 6.46094 121.312 6.69531C121.766 6.92969 122.188 7.21875 122.578 7.5625C122.969 7.89844 123.312 8.27734 123.609 8.69922L117.609 15.9297ZM119.25 9.33203C119.102 9.27734 118.953 9.24219 118.805 9.22656C118.664 9.21094 118.516 9.20312 118.359 9.20312C117.922 9.20312 117.508 9.28516 117.117 9.44922C116.734 9.60547 116.398 9.83203 116.109 10.1289C115.828 10.4258 115.605 10.7852 115.441 11.207C115.277 11.6211 115.195 12.0898 115.195 12.6133C115.195 12.7305 115.199 12.8633 115.207 13.0117C115.223 13.1602 115.242 13.3125 115.266 13.4688C115.297 13.6172 115.332 13.7617 115.371 13.9023C115.41 14.043 115.461 14.168 115.523 14.2773L119.25 9.33203Z" fill="#4E17EB"/>
</svg>
